<?xml version="1.0" standalone="no"?>
<!DOCTYPE svg PUBLIC "-//W3C//DTD SVG 20010904//EN"
 "http://www.w3.org/TR/2001/REC-SVG-20010904/DTD/svg10.dtd">
<svg version="1.0" xmlns="http://www.w3.org/2000/svg"
 width="512.000000pt" height="512.000000pt" viewBox="0 0 512.000000 512.000000"
 preserveAspectRatio="xMidYMid meet">

<g transform="translate(0.000000,512.000000) scale(0.100000,-0.100000)"
fill="currentColor" stroke="none">
<path d="M102 5099 c-26 -13 -55 -39 -70 -62 l-27 -41 0 -2195 0 -2196 23 -75
c74 -239 249 -416 490 -499 l77 -26 1960 0 1960 0 75 23 c239 74 416 249 499
490 l26 77 3 1549 2 1549 -21 44 c-13 27 -37 55 -62 71 l-41 27 -488 3 -488 3
0 570 c0 539 -1 572 -19 607 -23 46 -46 67 -94 87 -32 13 -245 15 -1899 15
l-1863 0 -43 -21z m2550 -921 c101 -60 118 -212 31 -290 -53 -48 -56 -48 -675
-48 -572 0 -582 0 -626 21 -83 40 -121 137 -88 224 19 47 72 102 109 109 12 3
31 7 42 10 11 2 276 3 590 3 l570 -2 47 -27z m2096 -2125 l-3 -1418 -27 -57
c-34 -73 -103 -142 -176 -176 -49 -23 -70 -27 -152 -27 -88 0 -101 3 -162 33
-108 53 -179 148 -198 268 -6 36 -10 600 -10 1427 l0 1367 365 0 365 0 -2
-1417z m-1563 1218 c48 -22 69 -44 90 -94 19 -45 19 -97 1 -140 -17 -43 -78
-95 -118 -102 -18 -3 -546 -4 -1174 -3 l-1141 3 -37 29 c-107 81 -93 246 26
305 l43 21 1135 0 c1080 0 1137 -1 1175 -19z m0 -730 c48 -22 69 -44 90 -94
28 -68 16 -138 -33 -190 -63 -67 27 -62 -1197 -65 -777 -2 -1125 1 -1162 8
-63 14 -109 49 -134 105 -32 69 -20 140 33 194 62 64 -12 60 1228 60 1080 1
1137 0 1175 -18z m22 -743 c114 -75 107 -242 -12 -310 l-40 -23 -1123 -3
c-757 -1 -1136 1 -1162 8 -74 20 -139 101 -140 173 0 66 48 137 115 168 38 18
88 19 1181 16 l1140 -2 41 -27z m-5 -730 c113 -67 116 -233 5 -306 l-41 -27
-1130 -3 c-786 -2 -1142 0 -1168 8 -74 21 -138 103 -138 175 0 39 31 104 63
133 57 53 16 51 1232 49 l1130 -2 47 -27z"/>
</g>
</svg>
