<?xml version="1.0" standalone="no"?>
<!DOCTYPE svg PUBLIC "-//W3C//DTD SVG 20010904//EN"
 "http://www.w3.org/TR/2001/REC-SVG-20010904/DTD/svg10.dtd">
<svg version="1.0" xmlns="http://www.w3.org/2000/svg"
 width="128.000000pt" height="128.000000pt" viewBox="0 0 128.000000 128.000000"
 preserveAspectRatio="xMidYMid meet">

<g transform="translate(0.000000,128.000000) scale(0.100000,-0.100000)"
fill="currentColor" stroke="none">
<path d="M945 1269 c-79 -23 -145 -116 -145 -206 l0 -51 -172 -98 c-95 -53
-180 -102 -189 -107 -12 -7 -31 -3 -70 16 -96 49 -203 29 -267 -48 -89 -109
-49 -276 80 -330 67 -27 169 -14 218 29 13 12 41 -1 205 -95 l190 -109 6 -64
c10 -114 84 -192 193 -203 47 -5 64 -2 109 21 142 69 163 254 41 354 -72 60
-172 63 -254 8 l-39 -25 -187 107 -187 107 -1 65 -2 65 189 107 189 107 38
-25 c82 -55 182 -52 254 8 121 99 101 284 -37 353 -53 26 -106 31 -162 14z"/>
</g>
</svg>
