<?xml version="1.0" standalone="no"?>
<!DOCTYPE svg PUBLIC "-//W3C//DTD SVG 20010904//EN"
 "http://www.w3.org/TR/2001/REC-SVG-20010904/DTD/svg10.dtd">
<svg version="1.0" xmlns="http://www.w3.org/2000/svg"
 width="128.000000pt" height="128.000000pt" viewBox="0 0 128.000000 128.000000"
 preserveAspectRatio="xMidYMid meet">

<g transform="translate(0.000000,128.000000) scale(0.100000,-0.100000)"
fill="currentColor" stroke="none">
<path d="M585 1224 c-36 -18 -538 -516 -567 -562 -39 -63 -30 -75 220 -325
226 -225 228 -227 271 -227 42 0 43 1 332 288 l289 287 0 243 c0 148 -4 251
-10 263 -24 43 -56 49 -287 49 -177 0 -224 -3 -248 -16z m483 -46 c9 -9 12
-76 12 -242 l0 -230 -257 -259 c-142 -143 -271 -267 -287 -277 -26 -17 -33
-17 -55 -5 -14 7 -117 105 -228 217 -152 153 -203 210 -203 228 0 19 67 91
278 302 l277 278 226 0 c162 0 228 -3 237 -12z"/>
<path d="M825 1056 c-58 -25 -72 -98 -27 -145 40 -44 95 -45 136 -5 47 48 28
131 -36 153 -38 13 -36 13 -73 -3z m73 -48 c19 -19 15 -66 -7 -78 -11 -5 -24
-10 -30 -10 -18 0 -41 31 -41 55 0 37 52 59 78 33z"/>
<path d="M1230 902 l0 -237 -295 -295 c-280 -280 -294 -295 -278 -313 16 -17
30 -5 306 270 158 158 295 300 303 315 11 21 14 77 14 263 l0 235 -25 0 -25 0
0 -238z"/>
</g>
</svg>
